<?xml version="1.0" encoding="utf-8" ?>
<svg baseProfile="full" height="300mm" version="1.1" viewBox="0,0,200,300" width="200mm" xmlns="http://www.w3.org/2000/svg" xmlns:ev="http://www.w3.org/2001/xml-events" xmlns:xlink="http://www.w3.org/1999/xlink"><defs /><rect fill="#222222" height="300" width="200" x="0" y="0" /><text fill="#FFFFFF" style="font-size:12px; font-family:Arial; font-weight:bold;" x="10" y="20">Over 10km Runs</text><text fill="#FFFFFF" style="font-size:4px; font-family:Arial" x="10" y="280">Runner</text><text fill="#FFFFFF" style="font-size:9px; font-family:Arial" x="10" y="290">王高登</text><text fill="#FFFFFF" style="font-size:4px; font-family:Arial" x="65" y="280">SPECIAL TRACKS</text><rect fill="yellow" height="2.6" width="2.6" x="65" y="283" /><text fill="#FFFFFF" style="font-size:3px; font-family:Arial" x="70" y="285.5">Over 20.0 km</text><rect fill="red" height="2.6" width="2.6" x="65" y="287" /><text fill="#FFFFFF" style="font-size:3px; font-family:Arial" x="70" y="289.5">Over 40.0 km</text><text fill="#FFFFFF" style="font-size:4px; font-family:Arial" x="120" y="280">STATISTICS</text><text fill="#FFFFFF" style="font-size:3px; font-family:Arial" x="120" y="285">Number: 2</text><text fill="#FFFFFF" style="font-size:3px; font-family:Arial" x="120" y="290">Weekly: 1.0</text><text fill="#FFFFFF" style="font-size:3px; font-family:Arial" x="141" y="285">Total: 41.4 km</text><text fill="#FFFFFF" style="font-size:3px; font-family:Arial" x="141" y="290">Avg: 20.7 km</text><text fill="#FFFFFF" style="font-size:3px; font-family:Arial" x="167" y="285">Min: 20.0 km</text><text fill="#FFFFFF" style="font-size:3px; font-family:Arial" x="167" y="290">Max: 21.4 km</text><polyline fill="none" points="151.99699248117395,57.73157580316183 150.76992481201887,57.41821269899083 148.18947368417867,52.71770870684122 146.2406015037559,52.42522934425506 144.8330827067839,50.92104317955091 143.31729323312175,47.43212448322447 142.86616541352123,45.071325482203974 142.43308270676062,44.27742236912309 140.21353383455426,45.175786189414794 138.7338345865719,45.405599558056565 138.2646616541315,44.36099126251065 137.2721804510802,43.776008293774794 136.3699248119956,44.38188348057156 133.89774436084554,43.88046966053662 129.94586466171313,44.77883521896729 129.94586466171313,44.04760773674934 129.62105263164267,43.67154687378206 128.93533834582195,43.35816229482589 127.96090225561056,43.39994693294284 127.9248120301636,43.1283466326131 127.29323308274616,43.170131317558116 127.20300751877949,42.85674597263278 126.62556390976533,43.274592992893304 125.59699248115066,43.54619309960981 125.30827067676,43.35816229482589 124.04511278192513,44.15206896516611 122.29473684204277,44.465452331496635 120.14736842107959,45.80254931576201 119.51578947366215,44.48634453881823 116.592481203028,44.21474567675614 115.56390977441333,45.4891679919383 115.90676691720728,46.533770543086575 114.6977443608921,46.80536633520387 113.47067669173703,47.703719086086494 112.65864661650266,47.8917459082586 112.09924812032841,49.061686707427725 110.4751879699761,50.75391070272599 110.04210526321549,52.80127416238247 108.90526315791067,55.14109310100321 106.79398496239446,55.97673625568859 105.27819548873231,55.55891510375659 102.9684210526757,59.340165538087604 102.84210526326206,59.21482133647078 101.5609022557037,60.551822206762154 101.12781954894308,61.70080036979925 97.84360902267508,61.324771861050976 95.76842105260585,60.175791592439055 95.58796992478892,59.25660274551774 95.06466165417805,58.7343345208501 95.11879699258134,59.86243222086341 94.70375939854421,60.092229140151176 93.71127819549292,59.75797899061581 91.63609022565652,59.778869640940684 89.03759398497641,59.340165538087604 87.81052631582133,58.67166224452376 86.67368421051651,56.89593979511119 86.85413533833344,56.4990114991524 85.69924812030513,55.93495417876693 85.5368421053281,55.14109310100321 84.83308270690031,54.53524968583952 84.54436090227682,52.822165520934504 84.61654135340359,51.1090670531994 85.06766917288769,49.81378798400692 82.19849624065682,49.08257844680338 78.30075187969487,48.72741858838708 78.04812030075118,47.36944875458721 74.67368421051651,46.22039033623878 74.33082706772257,45.4891679919383 73.26616541354451,45.677196843680576 72.16541353391949,45.050433334341506 70.84812030079775,44.82061956789403 69.530827067676,43.755116014013765 68.75488721800502,43.88046966053662 68.15939849626739,44.465452331496635 66.73383458645549,46.491986543202074 66.4992481203517,47.327664924858254 64.96541353384964,45.405599558056565 62.060150375938974,45.071325482203974 61.3022556391079,44.31920682010241 60.95939849631395,44.465452331496635 60.580451127840206,45.82344138700864 59.281203007441945,46.38752650615061 58.05413533828687,48.957227978724404 57.67518796992954,52.19542383830412 56.88120300753508,53.031078989763046 56.43007518805098,54.054751912059146 57.11578947363887,56.561684439031524 57.566917293239385,57.021285413284204 57.981954887276515,58.232955774554284 57.71127819549292,59.61174437898444 57.26015037589241,60.13401037058793 56.68270676699467,60.154900982553954 55.32932330830954,61.19942887162324 55.22105263150297,61.76347172097303 54.409022556385025,62.80799142215983 54.51729323307518,63.10045598572469 53.99398496246431,64.22852968369261 53.091729323379695,64.79256420726597 52.08120300748851,66.10863873355265 50.51127819553949,66.42198856725008 48.59849624056369,66.04596870941168 47.64210526319221,66.8606775305816 46.451127819600515,67.34114531929663 46.0,67.94695092774055 47.9127819549758,67.73805264406838 49.39248120307457,70.0150324634742 50.42105263157282,70.7043883442384 51.43157894734759,71.99953555557295 50.944360902300104,73.9840194589924 51.23308270680718,74.50624887605954 51.14285714284051,75.61337084558909 51.882706766948104,76.15648510013125 51.287218045210466,76.61604219299625 51.287218045210466,76.95026488695294 51.44962406018749,77.51426444893877 52.02706766920164,77.59781980779371 51.95488721807487,78.85114610900928 53.055639097699896,79.89557884729584 53.055639097699896,80.62667860199872 53.41654135345016,80.98178325754998 51.59398496244103,83.36305742847617 51.61203007516451,84.11503300642653 51.251127819530666,83.9479275605263 52.02706766920164,83.36305742847617 50.92631578957662,83.9479275605263 50.547368421102874,84.67901288208668 50.61954887222964,87.01846841414226 52.22556390974205,91.71818689619249 53.001503759413026,92.13593444334401 53.669172932277434,90.86180176706694 53.45263157901354,92.19859650207218 53.74135338352062,93.01320152534754 55.293233082746156,93.36828475474613 57.42255639098585,95.77030223621114 58.63157894741744,96.22981542158232 58.70375939842779,96.71021447032399 59.02857142861467,96.75198824747349 59.80451127816923,98.00519761120086 61.39248120295815,99.19573942146963 62.330827067722566,99.21662605831807 62.83609022560995,98.90332628304895 63.46766917291097,99.09130620560609 64.96541353384964,100.63691237638704 65.66917293227743,100.84577718279616 66.37293233082164,100.57425289304228 67.05864661652595,101.07552822434809 67.52781954884995,102.01541617211478 69.94586466171313,102.82998224657786 70.66766917298082,103.74897598962707 71.49774436093867,104.02049608109519 72.25563909776974,106.29707349148521 73.75338345870841,107.94705418721423 77.59699248115066,111.12166329483443 80.1052631578641,113.69055447638675 96.72481203009374,127.82932348600298 96.54436090227682,127.76667229908344 97.62706766917836,130.41888916140306 101.5248120300239,134.51200703372888 103.27518796990626,135.8694005645084 105.04360902262852,136.1408781943028 105.20601503760554,136.68383237766102 106.34285714279395,136.89266052765015 105.51278195495252,136.72559802465548 106.27067669178359,137.14325402736722 108.3639097744599,136.72559802465548 109.44661654136144,135.3264442284999 109.84360902255867,135.1593804517761 110.31278195488267,135.47262492172013 111.1789473684039,134.5955392022588 112.06315789476503,134.72083739146183 112.47819548868574,134.15699493826833 113.57894736842718,133.8855146866117 114.57142857147846,134.07346259139013 113.2902255639201,132.8204733114253 113.38045112777036,132.1730925222073 112.78496240603272,131.58835973311216 113.34436090220697,131.21245920406363 113.41654135345016,130.25182139329263 114.42706766910851,128.81085625335982 114.6796992480522,127.6413698678225 114.96842105255928,127.43253231259587 114.75187969929539,126.93132131369202 114.87819548870903,127.09839178250695 120.05714285722934,124.4670161124086 125.77744360896759,118.11816141469171 127.32932330830954,116.88595963604166 127.94285714288708,115.75817525701132 130.61353383457754,114.04560194945952 131.78646616544574,111.99884926259983 133.44661654136144,110.43244312000752 133.37443609023467,109.76410619590024 133.64511278201826,109.30462329875445 134.51127819542307,109.28373768807796 134.4571428571362,108.6571683804359 136.27969924814533,108.46919721535232 137.7954887218075,107.11162258055992 138.4812030076282,107.21605171727424 138.62556390976533,104.68885169965506 138.4451127819484,104.52176299894927 140.08721804514062,102.55846058083989 140.19548872171436,101.76477980670461 140.30375939852092,101.95275710946589 141.7834586466197,100.05208978820883 142.2165413533803,99.23751269296918 142.2165413533803,97.94253732470679 142.7037593985442,96.68932757856965 144.61654135328718,94.7677244435763 145.753383458592,92.49101919005625 145.64511278201826,89.08635780165787 145.03157894744072,84.69990099585266 148.0631578946486,79.8120244237798 149.0736842105398,76.76226468855748 149.84962406009436,75.38359130533354 149.88571428577416,71.0595101670915 150.4812030075118,67.50826428641449 151.31127819546964,66.3593186388025 151.9067669173237,66.40109859318181 153.98195488727652,64.95968524989439 154.0,64.50010205522995 153.45864661643282,64.08229825785384 153.7834586466197,62.80799142215983 151.47368421056308,58.46275451872498 151.47368421056308,57.71068494445353 151.29323308274616,57.85692091086821 150.76992481201887,57.25108551434823" stroke="#4DD2FF" stroke-linecap="round" stroke-linejoin="round" stroke-width="0.5"><title>2025-05-24 20.0km</title><desc>1748083488000</desc></polyline><polyline fill="none" points="88.15342266811058,156.0 88.06087128270883,156.36430654869764 88.43107682419941,156.92148005057243 90.28210453235079,158.50727348276996 90.11551203869749,159.40731308885734 90.4486970261205,160.65021859864646 90.92996423027944,161.50739053616417 91.61484448215924,161.63596602572943 91.74441642186139,162.15026719857997 91.30016977177002,163.58601798872405 91.48527254268993,166.84320735250367 90.24508397828322,170.67891178347054 90.33763536368497,172.62887997709913 91.02251561568119,173.1860104292573 92.2441939029377,173.25029461737722 92.72546110709663,173.78599542111624 92.94758443208411,173.3788629345654 93.09566664870363,173.7431394069863 93.42885163624305,173.70028338413977 93.52140302152839,174.17169915577688 93.96564967161976,173.89313541828596 94.2062832735246,174.53597425635962 94.3913860443281,174.21455508268264 95.26136906724423,175.11452753240883 95.65008488600142,175.11452753240883 95.53902322344948,175.28595041984227 95.59455405466724,175.0073881567223 95.89071848790627,175.4788010015618 96.16837264422793,175.28595041984227 96.44602680043317,175.8645016348164 96.70517067960463,175.60736795782577 96.85325289622415,176.48590672448336 97.57515370228793,176.0144961347105 97.26047899189871,176.48590672448336 97.74174619605765,176.50733445341757 98.5561983876396,177.6858561897243 99.75936639797874,178.71437885939667 100.01851027703378,178.54295876342803 100.5182877582265,179.3143480963481 99.87042806041427,179.12150102804299 100.1851027708035,179.52862240950344 100.66636997496244,179.33577553750365 99.98148972296622,179.97859775724646 100.75892136036418,179.87146085692802 100.5182877582265,180.85711828357307 100.9070035769837,180.85711828357307 100.53679803526029,181.15710006277368 101.31422967277467,180.9642546823743 101.46231188939419,181.3927997323044 101.14763717900496,181.75706233888923 101.59188382897992,181.73563514421403 101.29571939562447,182.035615671688 101.8325174311176,181.73563514421403 102.25825380394235,182.22846007082262 102.60994906839915,182.035615671688 103.20227793499362,182.65700254761032 103.16525738092605,183.04269003095396 103.62801430793479,182.87127345889166 103.60950403078459,183.19267941699945 104.42395622236654,183.25696054974105 106.77476141171064,182.3141686359595 106.97837445954792,183.34266869620478 107.47815194085706,183.12839826461277 107.75580609694589,183.5569389097218 106.97837445954792,184.45687142544193 107.64474443462677,184.52115217222308 107.08943612209987,185.67820225867035 107.70027526572812,186.17101795738563 108.01494997600093,187.04951264653937 109.31066937185824,187.94943023496307 115.62267385656014,183.89977079785604 116.89988297503442,182.1427514707757 118.23262292495929,181.75706233888923 121.21277753496543,180.21429874614114 124.56313768669497,179.78575129745877 125.15546655328944,181.24280906406057 126.56224761146586,183.29981462737487 126.71032982808538,183.02126296710048 128.8205014152918,182.485585661605 131.0232243880164,181.26423630889622 133.3184987460263,180.64284532247984 141.85173648037016,175.20023899358057 144.64678831968922,174.66454178845743 146.75695990689564,179.18578340382373 146.62738796742633,179.6357594842848 147.36779905064031,183.10697120946134 146.6829187986441,185.67820225867035 146.75695990689564,187.1137926017982 147.10865517146885,189.29929940632428 148.57096706097946,193.97020849213004 148.73755955463275,196.391327018835 148.40437456720974,196.45560412252962 148.682028723415,196.2199213130225 151.56963194801938,198.66243944990856 151.6992038876051,199.19807560481422 151.10687502101064,201.6405592013616 148.90415204840247,204.01873969582084 148.05267930263653,206.54686608973134 145.5908124508569,209.65342052749475 145.27613774046768,211.36736198356084 144.60976776550524,212.0100864339911 143.1104353220435,212.50284051784547 141.20387678255793,214.17391100163513 137.79798579972703,215.82354450182174 137.03906443936285,216.46625535540807 136.15057113952935,217.258929374133 134.89187229797244,219.1441961380624 134.31805370841175,219.22988968093705 134.41060509392992,220.51528864171996 133.09637542103883,223.2788698488148 127.2101073092781,226.19237357027305 127.45074091129936,226.68509448118857 127.33967924874742,227.82049045384338 126.2845934551442,228.5488544599648 126.39565511769615,229.34148301721143 125.45163098652847,230.13410859258147 123.82272660348099,230.62682028509153 122.26786332856864,232.57623350986978 118.60282846644986,235.10401720799564 115.86330745846499,235.38249999820255 115.64118413359392,237.010545867568 114.67864972527605,237.61034906962595 114.82673194201197,237.91025003037066 114.34546473785304,238.33867923387152 112.47592675266787,238.46720782507327 111.43935123609845,238.03877888291026 109.366200203076,238.85279312822968 106.71923058049288,239.13127096387325 103.44291153701488,240.73786667585955 102.46186685177963,242.04455548885744 102.55441823718138,243.09418489628297 101.70294549141545,243.7368125653884 101.59188382897992,244.850695882953 100.35169526457321,246.39298614114523 100.66636997496244,246.6071922287956 100.40722609579097,247.1641270375112 98.94491420639679,248.38509435253218 98.5747086647898,249.64889517554548 95.8722082109889,248.8777633713471 95.35392045252956,249.37043123840704 94.11373188823927,252.02653380975244 93.63246468408033,252.09079394102446 93.16970775707159,252.71197420063254 92.4292966738576,252.81907406031678 91.52229309687391,253.6758709786518 90.46720730315428,253.5045118736016 90.52273813448846,253.76155047889915 89.41212150955107,254.2113672837877 89.18999818468001,254.76828199790907 88.32001516188029,254.74686222842138 88.8197926429566,255.38945436599897 88.91234402835835,256.05346418330737 88.24597405339591,256.396178109193 87.7091760180192,257.36005803817534 87.06131632032339,257.46715553595277 86.00623052672017,259.2021274186118 85.21028861217201,259.9518022084667 83.54436367482413,260.55154012057756 83.17415813321713,262.564933487869 83.34075062698685,262.8433799929917 82.56331898958888,263.12182613024197 82.61884982080664,263.4431096777407 81.93396956881043,264.0 80.26804463146254,260.7443126584403 78.25042442965787,258.0669005179079 77.8431983338669,256.974506595594 77.75064694846515,255.36803465960838 76.45492755272426,252.71197420063254 76.43641727569047,251.08404963224893 77.02874614228494,249.41327186807757 76.86215364851523,247.61395792396797 76.60300976934377,246.82139809861837 75.38133148208726,245.36479388987937 75.45537259033881,243.22271058690967 74.80751289252657,242.02313442606828 74.36326624266803,241.7446604121069 74.15965319471434,240.9734996835905 74.17816347186454,240.2880211112206 74.77049233834259,239.13127096387325 74.01157097809482,240.56649705018208 74.30773541133385,239.49543373219785 74.14114291768055,238.68142196947883 73.36371128016617,237.37471230106894 72.29011520952918,236.66780041415768 71.77182745118625,235.3610782581236 71.95693022210617,233.96866048495576 71.71629661996849,232.7476096341852 70.93886498257052,232.31916906204424 70.2539847305743,231.1409529966768 68.8286933953641,229.8556188653456 69.08783727453556,228.39889737043995 68.86571394943167,227.34919475513743 66.51490876020398,224.3928613235912 65.33025102701504,223.70732880549622 64.73792216042057,223.70732880549622 64.75643243745435,222.97894806072873 64.07155218545813,222.2934109416674 64.18261384789366,221.84352599487465 63.81240830628667,221.92921843972 64.03453163127415,221.82210287818452 63.682836366817355,221.56502530824218 63.53475415019784,219.42270002505393 60.980335912900046,217.7302476469049 59.12930820486508,214.83805071763345 59.0922876506811,213.83112839345995 59.66610624024179,213.95967193690012 60.07333233591635,213.68116082694905 59.240369867300615,212.24575157447543 58.88867460284382,210.5318172659463 58.92569515691139,208.53935110209568 59.66610624024179,205.1756826590863 58.16677379666362,203.50454078329494 57.741037423722446,202.28331333454116 57.278280496713705,202.54041443852475 57.68550659250468,201.769110184905 55.68639666773379,199.51945664382947 55.279170571942814,197.59116305304633 55.723417221801355,195.85568372503622 55.57533500518184,194.63441192061873 56.27872553432826,192.8132039684133 56.64893107593525,190.77771761755866 56.463828305131756,189.12788792772335 55.68639666773379,187.7351644913433 53.00240649096668,184.64971360693744 48.30079611239489,180.30000813117658 50.13331354339607,178.62866882882372 50.11480326636229,177.62157335600932 51.26244044536725,176.59304534757393 51.31797127658501,176.0787794591306 51.79923848074395,176.85017782077193 52.632200949359685,175.9287850050314 52.576670118025504,175.50022883301426 51.66966654115822,175.093099661608 51.429032939020544,174.55740218386927 52.89134482841473,171.57889934800914 53.705797020113096,171.08604949164146 55.00151641573757,171.32176043647632 56.05660220934078,170.57177015046182 55.51980417408049,169.75749195741082 55.2976808489766,168.21464042762818 55.96405082393903,168.12892612221185 56.37127691973001,167.59321092252503 59.0922876506811,166.97177958281827 59.88822956511285,167.5503536476608 60.88778452761471,169.39320858822612 62.127973091905005,170.29320164943056 62.25754503160715,170.80748167115962 62.92391500645317,170.8289099780959 63.64581581251696,172.17888892021438 63.83091858343687,172.02889168748516 62.97944583767094,169.99320438982977 62.23903475445695,166.7574924886285 62.498178633512,166.43606143830402 64.07155218545813,167.29320981519413 65.44131268956698,166.32891764576198 66.81107319344301,166.30748888074595 68.34742619132157,167.63606818867265 69.29145032225642,169.1574954839598 69.80973808059935,167.05749435944017 70.45759777841158,167.12178041903826 70.71674165758304,168.0646403702267 71.21651913877577,168.4074974873074 72.17905354709364,167.65749681845773 72.7713824135717,168.53606876217236 72.49372825748287,168.9860676060489 74.56687929050531,171.0003363553551 75.67749591532629,170.59319848143787 75.06665677169804,168.3217832603259 76.14025284245145,167.67892544604547 76.26982478192076,165.1717612115608 77.17682835890446,164.12174338666955 78.82424301921856,164.1860303428257 79.2869999462273,164.5074648289592 83.2481992415851,168.30035469817813 86.20984357455745,168.00035459866922 87.98683017434087,166.8003499249171 88.98638513672631,166.56463391733996 89.61573455738835,166.52177643301548 90.98549506138079,167.12178041903826 91.42974171147216,166.9932082802843" stroke="yellow" stroke-linecap="round" stroke-linejoin="round" stroke-width="0.5"><title>2025-03-23 21.4km</title><desc>1742727140000</desc></polyline></svg>